<?xml version="1.0" encoding="iso-8859-1"?>
<!-- Uploaded to: SVG Repo, www.svgrepo.com, Generator: SVG Repo Mixer Tools -->
<!DOCTYPE svg PUBLIC "-//W3C//DTD SVG 1.1//EN" "http://www.w3.org/Graphics/SVG/1.1/DTD/svg11.dtd">
<svg height="800px" width="800px" version="1.1" id="Capa_1" xmlns="http://www.w3.org/2000/svg" xmlns:xlink="http://www.w3.org/1999/xlink" 
	 viewBox="0 0 57.456 57.456" xml:space="preserve">
<g>
	<path style="fill:#1D1D1B;" d="M54.514,29.509c-0.367-2.092-2.273-3.279-4.239-3.28c0.435-1.996-0.38-4.248-2.458-5.005
		c-1.808-0.659-3.659,0.159-4.68,1.611c-0.348-0.809-1.032-1.542-1.675-1.993c-0.189-0.133-0.394-0.247-0.605-0.351
		c1.159-1.199,1.435-2.793,0.897-4.379c3.309-0.772,6.012-3.765,4.601-7.379c-1.154-2.956-5.352-4.087-7.4-1.485
		c0.629-6.8-8.622-10.207-11.244-3.973c-1.639-1.696-3.814-3.388-6.189-2.294c-1.401,0.646-2.271,1.976-2.028,3.285
		c-0.731-0.322-1.671-0.149-2.294,0.436c-0.593,0.556-0.882,1.304-1.13,2.059c-0.242,0.737-0.603,1.564-0.777,2.383
		c-0.488-0.328-1.093-0.465-1.75-0.262c-1.051,0.325-1.674,1.429-1.552,2.463c-1.913-1.162-4.756-1.112-5.97,1.026
		c-0.553,0.973-0.59,2.241-0.192,3.273c0.134,0.348,0.348,0.722,0.619,1.045c-1.734,0.551-3.318,1.695-3.543,3.608
		c-0.198,1.686,0.963,3.647,2.62,3.952c-1.019,1.135-1.538,2.782-0.438,4.084c0.836,0.989,2.275,1.146,3.318,0.564
		c0.884,3.304,5.519,3.987,7.109,0.85c1.976,2.119,4.599,3.57,7.501,3.597c-0.036,0.071-0.059,0.153-0.06,0.251
		c-0.063,7.32-0.413,14.569-1.324,21.837c-0.04,0.321,0.256,0.613,0.534,0.702c2.66,0.849,10.728,2.924,12.026-0.949
		c0.774-2.31-1.347-5.857-1.951-8.091c-1.038-3.839-1.796-7.728-2.371-11.658c1.711,0.472,3.556,0.749,5.357,0.757
		c-0.804,3.692,4.165,5.948,7.124,3.489c1.333,2.912,5.068,4.572,8.076,3.025c3.292-1.694,3.778-6.08,1.696-8.839
		C53.769,33.164,54.844,31.394,54.514,29.509z M17.378,7.287c0.257-0.799,1.288-3.262,2.425-1.842
		c0.094,0.118,0.216,0.132,0.322,0.088c0.315,0.335,0.909-0.046,0.776-0.476c1.774-3.028,3.508-3.536,5.203-1.523
		c0.493,0.477,0.962,0.976,1.407,1.497c0.337,0.377,1.002,0.176,1.122-0.296c0.634-2.499,3.161-4.096,5.713-3.304
		c2.343,0.726,3.44,3.007,3.799,5.235c-0.19-0.105-0.385-0.179-0.582-0.166c-0.287,0.019-0.617,0.311-0.483,0.634
		c0.228,0.551,0.862,0.818,1.289,1.221c0.44,0.415,0.919,0.933,1.224,1.457c0.169,0.291,0.648,0.1,0.549-0.232
		c-0.108-0.363-0.157-0.675-0.339-1.016c-0.079-0.147-0.183-0.278-0.274-0.417c2.287-1.611,5.563-1.012,5.786,2.289
		c0.182,2.689-2.208,4.298-4.56,4.642c-0.403,0.059-0.527,0.582-0.361,0.886c0.823,1.508,0.627,2.916-0.309,4.226
		c-0.894-0.254-1.862-0.231-2.695,0.216c-0.353,0.189-0.657,0.44-0.914,0.729c0.008-0.052,0.011-0.108-0.001-0.169
		c-0.075-0.399-0.167-0.799-0.225-1.201c-0.042-0.287-0.073-0.495-0.171-0.705c0.331-0.215,0.602-0.501,0.743-0.895
		c0.116-0.325-0.274-0.537-0.535-0.411c-0.447,0.216-0.805,0.565-1.259,0.765c-0.485,0.213-0.996,0.259-1.518,0.191
		c-0.404-0.053-0.48,0.608-0.095,0.704c0.495,0.124,1.096,0.143,1.662,0.035c0.076,0.592,0.397,1.201,0.585,1.742
		c0.101,0.292,0.378,0.346,0.583,0.247c-0.166,0.231-0.315,0.473-0.428,0.733c-0.054,0.046-0.103,0.103-0.139,0.178
		c-1.007,2.093-3.664,2.892-5.503,1.303c-0.302-0.261-0.775-0.244-0.989,0.128c-0.753,1.302-2.196,1.651-3.522,1.157
		c-0.047-1.408,0.129-2.838,0.305-4.086c0.075-0.531-0.64-0.759-0.821-0.226c-0.551,1.622-0.979,3.149-1.151,4.861
		c-0.037,0.373,0.145,2.108-0.071,2.618c-1.372,3.237-3.783-0.511-5.323-3.689c0.156,0.004,0.303-0.017,0.453-0.029
		c0.422,0.881,1.475,0.996,2.366,0.704c0.038,0.201,0.083,0.4,0.121,0.6c0.045,0.236,0.305,0.405,0.533,0.406
		c0.475,0.002,0.951,0.005,1.426,0.007c0.625,0.003,0.592-0.881,0-0.949c-0.302-0.035-0.604-0.069-0.906-0.104
		c-0.025-0.306-0.055-0.611-0.062-0.918c-0.013-0.569-0.693-0.84-1.103-0.457c-0.282,0.263-0.551,0.316-0.823,0.285
		c2.781-1.41,3.577-5.761,0.278-7.515c-0.141-0.075-0.287-0.073-0.423-0.04c1.832-1.144,2.561-3.844,1.091-5.597
		c-1.33-1.585-3.706-1.628-5.278-0.474C16.873,9.452,17.057,8.285,17.378,7.287z M35.554,31.705
		c-0.703,0.023-1.411,0.009-2.115-0.031c-1.126-0.064-2.54-0.044-3.596-0.419c-2.9-1.032-3.896-3.213-4.127-5.562
		c1.415,0.791,3.032,0.434,4.116-0.721c1.786,1.21,4.201,0.988,5.763-0.37c0.07,0.282,0.164,0.557,0.308,0.812
		c-1.343,0.105-2.696,1.437-2.922,2.672C32.664,29.818,33.917,31.38,35.554,31.705z M9.428,27.665
		c0.007-0.576-0.824-0.822-1.104-0.299c-0.865,1.617-2.603,0.306-2.743-0.957c-0.096-0.862,0.291-1.567,0.845-2.165
		c0.081-0.015,0.161-0.025,0.243-0.048c0.637-0.178,0.54-1.251-0.161-1.191c-1.794,0.153-2.827-1.844-2.113-3.403
		c0.51-1.112,1.601-1.824,2.743-2.327c0.257,0.143,0.536,0.232,0.838,0.216c0.046,0.416,0.163,0.823,0.363,1.216
		c0.164,0.324,0.7,0.099,0.588-0.248c-0.198-0.617-0.208-1.272,0.017-1.885c0.203-0.554,0.731-0.915,0.88-1.471
		c0.09-0.334-0.21-0.572-0.519-0.519c-0.709,0.121-1.099,1.033-1.255,1.696c-0.388-0.294-0.758-0.558-0.97-1.072
		c-0.282-0.684-0.267-1.512,0.079-2.172c0.986-1.88,3.641-1.519,5.116-0.536c0.173,0.115,0.357,0.047,0.469-0.085
		c0.245-0.033,0.461-0.241,0.369-0.543c-0.19-0.457-0.183-0.931,0.021-1.422c1.488-0.81,2.236-0.492,2.241,0.953
		c-0.034,0.442,0.608,0.711,0.897,0.372c1.062-1.245,3.034-1.513,4.236-0.308c1.263,1.266,0.844,3.371-0.525,4.378
		c0.009-0.372,0.031-0.74,0.09-1.093c0.16-0.952-1.3-0.958-1.139,0c0.153,0.911,0.073,1.92,0.1,2.843
		c0.018,0.604,0.921,0.605,0.939,0c0.003-0.109,0.002-0.221,0.003-0.332c0.034,0.061,0.077,0.12,0.143,0.174
		c1.07,0.88,1.862,1.993,1.641,3.456c-0.245,1.625-1.655,2.769-3.257,2.923c-0.065,0.006-0.105,0.042-0.148,0.073
		c-0.568-1.221-0.984-2.289-1.129-2.734c-0.138-0.425-0.868-0.516-0.956,0c0.013-0.079-0.672,3.616-0.256,3.458
		c-0.488,0.185-2.521-2.537-3.005-3.123c-0.122-0.148-0.293-0.132-0.417-0.041c-0.124-0.341-0.747-0.236-0.722,0.164
		c0.148,2.451,1.16,4.997,2.752,7.089C13.43,31.631,9.389,30.942,9.428,27.665z M49.96,41.186c-2.709,1.522-5.716-0.281-6.646-3.026
		c-0.201-0.593-0.935-0.67-1.282-0.168c-1.98,2.268-3.756,2.038-5.327-0.69c-0.046-0.39-0.056-0.778-0.041-1.165
		c4.201-0.357,7.857-2.435,8.473-7.54c0.084-0.695-1.079-0.847-1.222-0.165c-0.919,4.365-3.938,6.035-7.406,6.294
		c-0.204-0.111-0.486-0.107-0.67,0.043c-2.231,0.051-4.602-0.437-6.694-1.145c-0.426-0.144-1.031,0.253-0.966,0.736
		c0.473,3.562,1.07,7.096,1.916,10.59c0.484,1.996,1.044,3.973,1.662,5.932c1.031,3.267,1.145,4.872-3.072,4.912
		c-2.328,0.022-4.483,0.22-5.378-2.169c-0.593-1.584,0.534-5.512,0.638-7.265c0.25-4.249,0.303-8.509,0.118-12.761
		c-0.008-0.188-0.092-0.323-0.207-0.412c0.201-0.238,0.172-0.655-0.21-0.753c-2.797-0.714-5.221-1.505-7.344-3.598
		c-1.799-1.774-3.004-3.994-3.523-6.439c0.976,1.605,2.122,2.825,3.658,4.028c0.408,0.32,0.968,0.031,0.867-0.505
		c-1.161-6.188-0.582-2.344,0.094-1.32c0.736,1.114,1.113,2.402,1.981,3.458c1.401,1.704,2.906,2.592,5.091,2.943
		c0.236,0.038,0.566-0.106,0.53-0.404c-0.132-1.109-0.26-2.207-0.244-3.326c0.005-0.352,0.116-0.871,0.251-1.44
		c-0.001,0.328,0.011,0.597,0.041,0.753c0.406,2.086,1.465,4.06,3.385,5.112c4.247,2.326,11.868,1.546,14.991-2.199
		c0.436-0.523-0.311-1.28-0.753-0.753c-1.691,2.015-3.995,2.745-6.422,2.925c0.135-0.166,0.11-0.471-0.146-0.532
		c-1.274-0.304-2.34-1.664-1.891-3.003c0.447-1.332,1.739-1.407,2.894-1.611c0.233-0.041,0.301-0.242,0.27-0.435
		c0-0.009-0.005-0.018-0.005-0.028c-0.011-0.052-0.025-0.099-0.052-0.145c-0.015-0.024-0.027-0.049-0.051-0.07
		c-0.671-0.611-0.881-1.543-0.716-2.41c0.106-0.189,0.203-0.386,0.284-0.596c0.034-0.089,0.041-0.173,0.032-0.253
		c0.265-0.493,0.656-0.914,1.183-1.144c0.925-0.404,2.009-0.125,2.794,0.458c0.653,0.485,0.907,1.088,1.194,1.723
		c-0.052-0.005-0.1-0.019-0.153-0.021c-0.15-0.003-0.304,0.005-0.452,0.034c-0.223,0.044-0.285,0.194-0.485,0.261
		c-0.29,0.097-0.166,0.488,0.123,0.448c0.031-0.004,0.226,0.099,0.285,0.113c0.111,0.025,0.226,0.027,0.338,0.053
		c0.217,0.052,0.442,0.132,0.637,0.238c0.085,0.046,0.161,0.109,0.235,0.176c0.017,0.015,0.032,0.031,0.05,0.043
		c0.238,0.224,0.449,0.498,0.757,0.561c0.22,0.045,0.488-0.062,0.538-0.306c0.078-0.381-0.129-0.701-0.416-0.955
		c1.568-3.426,7.056-1.352,5.265,2.384c-0.246,0.512,0.159,1.128,0.751,0.976c3.981-1.023,4.846,4.11,1.362,5.53
		c-0.224,0.091-0.342,0.328-0.35,0.552c-0.022-0.086-0.045-0.167-0.068-0.239c-0.223-0.703-0.661-1.275-1.265-1.694
		c-0.338-0.235-0.748,0.297-0.441,0.572c0.438,0.391,0.727,0.889,0.8,1.476c0.062,0.502-0.261,1.018,0.022,1.475
		c0.133,0.215,0.38,0.259,0.599,0.157c0.509-0.238,0.518-0.912,0.413-1.477c0.074,0.134,0.21,0.226,0.429,0.202
		c0.11-0.012,0.21-0.049,0.317-0.07c0.004,0.007,0.004,0.014,0.008,0.021C52.876,36.443,52.512,39.752,49.96,41.186z"/>
	<path style="fill:#1D1D1B;" d="M33.834,11.583c-0.692-1.973-3.007-1.925-4.729-1.333c-0.198-0.913-0.9-1.702-1.947-1.67
		c-1.347,0.041-2.063,1.497-1.67,2.667c0.143,0.428,0.754,0.254,0.671-0.185c1.177-1.616,1.781-1.648,1.812-0.097
		c-0.128,0.518,0.41,0.9,0.869,0.668c0.942-0.479,2.731-1.057,3.604-0.05c0.671,0.774,0.246,2.165-0.852,2.138
		c-0.251-0.006-0.418,0.126-0.498,0.302c-0.344-0.127-0.708-0.198-1.091-0.205c-0.348-0.007-0.442,0.558-0.084,0.622
		c0.565,0.1,1.089,0.347,1.504,0.748c0.391,0.378,0.457,1.001,0.905,1.284c0.251,0.158,0.588,0.003,0.666-0.271
		c0.132-0.465-0.213-0.947-0.593-1.318C33.625,14.56,34.254,12.78,33.834,11.583z"/>
</g>
</svg>