<svg xmlns="http://www.w3.org/2000/svg" xmlns:xlink="http://www.w3.org/1999/xlink" width="500" zoomAndPan="magnify" viewBox="0 0 375 374.999991" height="500" preserveAspectRatio="xMidYMid meet" version="1.2"><defs><clipPath id="c4054f997d"><path d="M 53.652344 130.636719 L 107.652344 130.636719 L 107.652344 216.886719 L 53.652344 216.886719 Z M 53.652344 130.636719 "/></clipPath><clipPath id="6f7ad28cb3"><rect x="0" width="74" y="0" height="96"/></clipPath><clipPath id="9e11801181"><path d="M 88 191 L 97 191 L 97 204 L 88 204 Z M 88 191 "/></clipPath><clipPath id="0da1c41b56"><path d="M 88.265625 191.992188 L 96.269531 193.351562 L 94.429688 204.203125 L 86.421875 202.84375 Z M 88.265625 191.992188 "/></clipPath><clipPath id="7305ab4c82"><path d="M 90.429688 203.5 L 96.269531 193.351562 L 88.265625 191.992188 Z M 90.429688 203.5 "/></clipPath><clipPath id="e2b2e4f20e"><path d="M 0.078125 0.761719 L 8.480469 0.761719 L 8.480469 12.519531 L 0.078125 12.519531 Z M 0.078125 0.761719 "/></clipPath><clipPath id="e1ed26d416"><path d="M 0.265625 0.992188 L 8.269531 2.351562 L 6.429688 13.203125 L -1.578125 11.84375 Z M 0.265625 0.992188 "/></clipPath><clipPath id="a1e076dc3c"><path d="M 2.429688 12.5 L 8.269531 2.351562 L 0.265625 0.992188 Z M 2.429688 12.5 "/></clipPath><clipPath id="bd07fa9636"><rect x="0" width="9" y="0" height="13"/></clipPath></defs><g id="d0806f9386"><g clip-rule="nonzero" clip-path="url(#c4054f997d)"><path style=" stroke:none;fill-rule:nonzero;fill:#74342b;fill-opacity:1;" d="M 80.601562 173.203125 C 72.039062 173.203125 65.097656 166.265625 65.097656 157.703125 C 65.097656 149.140625 72.039062 142.203125 80.601562 142.203125 C 89.164062 142.203125 96.101562 149.140625 96.101562 157.703125 C 96.101562 166.265625 89.164062 173.203125 80.601562 173.203125 Z M 80.601562 130.765625 C 65.722656 130.765625 53.664062 142.828125 53.664062 157.703125 C 53.664062 172.578125 80.601562 216.910156 80.601562 216.910156 C 80.601562 216.910156 107.539062 172.578125 107.539062 157.703125 C 107.539062 142.828125 95.476562 130.765625 80.601562 130.765625 "/></g><g style="fill:#000000;fill-opacity:1;"><g transform="translate(143.856851, 221.603789)"><path style="stroke:none" d="M 16.828125 0 L 2.640625 0 L 2.640625 -23.890625 L 16.828125 -23.890625 L 16.828125 -21.609375 L 5.09375 -21.609375 L 5.09375 -13.109375 L 16.484375 -13.109375 L 16.484375 -10.78125 L 5.09375 -10.78125 L 5.09375 -2.28125 L 16.828125 -2.28125 Z M 16.828125 0 "/></g></g><g style="fill:#000000;fill-opacity:1;"><g transform="translate(167.404224, 221.603789)"><path style="stroke:none" d="M 18.234375 -6.671875 C 18.234375 -5.691406 18.007812 -4.753906 17.5625 -3.859375 C 17.125 -2.972656 16.53125 -2.25 15.78125 -1.6875 C 14.320312 -0.5625 12.375 0 9.9375 0 L 2.640625 0 L 2.640625 -23.890625 L 9.09375 -23.890625 C 12.59375 -23.890625 14.867188 -22.8125 15.921875 -20.65625 C 16.296875 -19.882812 16.484375 -19.101562 16.484375 -18.3125 C 16.484375 -17.507812 16.425781 -16.890625 16.3125 -16.453125 C 16.164062 -15.984375 15.976562 -15.535156 15.75 -15.109375 C 15.207031 -14.191406 14.515625 -13.546875 13.671875 -13.171875 C 15.078125 -12.796875 16.191406 -12.046875 17.015625 -10.921875 C 17.828125 -9.773438 18.234375 -8.359375 18.234375 -6.671875 Z M 14.015625 -17.921875 C 14.015625 -20.335938 12.375 -21.546875 9.09375 -21.546875 L 5.09375 -21.546875 L 5.09375 -14.09375 L 9.796875 -14.09375 C 11.066406 -14.09375 12.085938 -14.410156 12.859375 -15.046875 C 13.628906 -15.671875 14.015625 -16.628906 14.015625 -17.921875 Z M 15.78125 -7.140625 C 15.78125 -7.835938 15.648438 -8.457031 15.390625 -9 C 15.109375 -9.53125 14.757812 -10 14.34375 -10.40625 C 13.40625 -11.21875 12.300781 -11.625 11.03125 -11.625 L 5.09375 -11.625 L 5.09375 -2.359375 L 10.640625 -2.359375 C 12.140625 -2.359375 13.375 -2.789062 14.34375 -3.65625 C 15.300781 -4.539062 15.78125 -5.703125 15.78125 -7.140625 Z M 15.78125 -7.140625 "/></g></g><g style="fill:#000000;fill-opacity:1;"><g transform="translate(190.424426, 221.603789)"><path style="stroke:none" d="M 9.28125 -11.28125 C 4.40625 -12.40625 1.96875 -14.488281 1.96875 -17.53125 C 1.96875 -19.78125 2.753906 -21.46875 4.328125 -22.59375 C 5.890625 -23.695312 7.726562 -24.25 9.84375 -24.25 C 14.5 -24.25 17.257812 -22.515625 18.125 -19.046875 L 15.46875 -19.046875 C 15 -21.109375 13.125 -22.140625 9.84375 -22.140625 C 7.539062 -22.140625 5.9375 -21.457031 5.03125 -20.09375 C 4.675781 -19.582031 4.5 -18.941406 4.5 -18.171875 C 4.5 -16.691406 5.296875 -15.554688 6.890625 -14.765625 C 7.640625 -14.359375 9.234375 -13.84375 11.671875 -13.21875 C 14.109375 -12.582031 15.875 -11.878906 16.96875 -11.109375 C 18.488281 -10.023438 19.25 -8.515625 19.25 -6.578125 C 19.25 -4.160156 18.300781 -2.332031 16.40625 -1.09375 C 14.8125 -0.0625 12.84375 0.453125 10.5 0.453125 C 5.207031 0.453125 2.140625 -1.5625 1.296875 -5.59375 L 4.21875 -5.59375 C 4.664062 -3.0625 6.757812 -1.796875 10.5 -1.796875 C 13.175781 -1.796875 15.039062 -2.53125 16.09375 -4 C 16.519531 -4.59375 16.734375 -5.390625 16.734375 -6.390625 C 16.734375 -7.378906 16.34375 -8.1875 15.5625 -8.8125 C 14.46875 -9.707031 12.375 -10.53125 9.28125 -11.28125 Z M 9.28125 -11.28125 "/></g></g><g style="fill:#000000;fill-opacity:1;"><g transform="translate(214.674684, 221.603789)"><path style="stroke:none" d="M 23.6875 -12.015625 C 23.6875 -14.710938 22.722656 -17.019531 20.796875 -18.9375 C 18.878906 -20.863281 16.5625 -21.828125 13.84375 -21.828125 C 11.144531 -21.828125 8.835938 -20.863281 6.921875 -18.9375 C 5.003906 -17.019531 4.046875 -14.710938 4.046875 -12.015625 C 4.046875 -9.296875 5.003906 -6.976562 6.921875 -5.0625 C 8.835938 -3.132812 11.144531 -2.171875 13.84375 -2.171875 C 16.5625 -2.171875 18.878906 -3.132812 20.796875 -5.0625 C 22.722656 -6.976562 23.6875 -9.296875 23.6875 -12.015625 Z M 26.140625 -12.015625 C 26.140625 -10.328125 25.828125 -8.734375 25.203125 -7.234375 C 24.546875 -5.734375 23.664062 -4.4375 22.5625 -3.34375 C 21.4375 -2.21875 20.125 -1.335938 18.625 -0.703125 C 17.125 -0.046875 15.53125 0.28125 13.84375 0.28125 C 12.15625 0.28125 10.570312 -0.046875 9.09375 -0.703125 C 7.601562 -1.335938 6.304688 -2.21875 5.203125 -3.34375 C 4.078125 -4.4375 3.195312 -5.734375 2.5625 -7.234375 C 1.90625 -8.734375 1.578125 -10.328125 1.578125 -12.015625 C 1.578125 -13.703125 1.90625 -15.296875 2.5625 -16.796875 C 3.195312 -18.296875 4.078125 -19.597656 5.203125 -20.703125 C 6.304688 -21.796875 7.601562 -22.671875 9.09375 -23.328125 C 10.570312 -23.960938 12.15625 -24.28125 13.84375 -24.28125 C 15.53125 -24.28125 17.125 -23.960938 18.625 -23.328125 C 20.125 -22.671875 21.4375 -21.796875 22.5625 -20.703125 C 23.664062 -19.597656 24.546875 -18.296875 25.203125 -16.796875 C 25.828125 -15.296875 26.140625 -13.703125 26.140625 -12.015625 Z M 26.140625 -12.015625 "/></g></g><g style="fill:#000000;fill-opacity:1;"><g transform="translate(246.480994, 221.603789)"><path style="stroke:none" d="M 5.09375 -2.453125 L 13.640625 -2.453125 L 13.640625 0 L 2.640625 0 L 2.640625 -23.890625 L 5.09375 -23.890625 Z M 5.09375 -2.453125 "/></g></g><g style="fill:#000000;fill-opacity:1;"><g transform="translate(264.897272, 221.603789)"><path style="stroke:none" d="M 19.921875 -7.90625 C 19.921875 -5.332031 19.078125 -3.296875 17.390625 -1.796875 C 15.796875 -0.390625 13.675781 0.3125 11.03125 0.3125 C 8.363281 0.3125 6.234375 -0.390625 4.640625 -1.796875 C 2.953125 -3.296875 2.109375 -5.332031 2.109375 -7.90625 L 2.109375 -23.890625 L 4.5625 -23.890625 L 4.5625 -7.5625 C 4.5625 -5.75 5.21875 -4.363281 6.53125 -3.40625 C 7.65625 -2.5625 9.15625 -2.140625 11.03125 -2.140625 C 13.957031 -2.140625 15.925781 -3.125 16.9375 -5.09375 C 17.289062 -5.769531 17.46875 -6.59375 17.46875 -7.5625 L 17.46875 -23.890625 L 19.921875 -23.890625 Z M 19.921875 -7.90625 "/></g></g><g style="fill:#000000;fill-opacity:1;"><g transform="translate(291.010181, 221.603789)"><path style="stroke:none" d="M 0.703125 -21.6875 L 0.703125 -23.96875 L 14.765625 -23.96875 L 14.765625 -21.6875 L 8.953125 -21.6875 L 8.953125 -0.0625 L 6.5 -0.0625 L 6.5 -21.6875 Z M 0.703125 -21.6875 "/></g></g><g style="fill:#000000;fill-opacity:1;"><g transform="translate(154.512461, 189.992786)"><path style="stroke:none" d="M 1.078125 0 L 1.078125 -7.140625 L 3.78125 -7.140625 C 4.21875 -7.140625 4.585938 -7.066406 4.890625 -6.921875 C 5.203125 -6.785156 5.4375 -6.585938 5.59375 -6.328125 C 5.75 -6.066406 5.828125 -5.757812 5.828125 -5.40625 C 5.828125 -5.09375 5.742188 -4.8125 5.578125 -4.5625 C 5.410156 -4.3125 5.171875 -4.117188 4.859375 -3.984375 L 4.859375 -3.875 C 5.328125 -3.757812 5.679688 -3.546875 5.921875 -3.234375 C 6.171875 -2.929688 6.296875 -2.546875 6.296875 -2.078125 C 6.296875 -1.410156 6.101562 -0.894531 5.71875 -0.53125 C 5.332031 -0.175781 4.753906 0 3.984375 0 Z M 3.75 -4.140625 C 4.144531 -4.140625 4.445312 -4.242188 4.65625 -4.453125 C 4.875 -4.660156 4.984375 -4.941406 4.984375 -5.296875 C 4.984375 -5.679688 4.878906 -5.96875 4.671875 -6.15625 C 4.460938 -6.351562 4.15625 -6.453125 3.75 -6.453125 L 1.921875 -6.453125 L 1.921875 -4.140625 Z M 3.921875 -0.6875 C 4.941406 -0.6875 5.453125 -1.148438 5.453125 -2.078125 C 5.453125 -2.992188 4.941406 -3.453125 3.921875 -3.453125 L 1.921875 -3.453125 L 1.921875 -0.6875 Z M 3.921875 -0.6875 "/></g></g><g style="fill:#000000;fill-opacity:1;"><g transform="translate(161.3799, 189.992786)"><path style="stroke:none" d="M 5.125 -2.515625 L 1.4375 -2.515625 C 1.457031 -1.859375 1.613281 -1.375 1.90625 -1.0625 C 2.195312 -0.757812 2.59375 -0.609375 3.09375 -0.609375 C 3.476562 -0.609375 3.785156 -0.675781 4.015625 -0.8125 C 4.253906 -0.945312 4.441406 -1.160156 4.578125 -1.453125 L 4.6875 -1.453125 L 5.203125 -1.15625 C 5.046875 -0.757812 4.796875 -0.445312 4.453125 -0.21875 C 4.109375 0 3.65625 0.109375 3.09375 0.109375 C 2.570312 0.109375 2.125 0.00390625 1.75 -0.203125 C 1.382812 -0.410156 1.097656 -0.722656 0.890625 -1.140625 C 0.691406 -1.554688 0.59375 -2.070312 0.59375 -2.6875 C 0.59375 -3.300781 0.695312 -3.816406 0.90625 -4.234375 C 1.125 -4.660156 1.414062 -4.972656 1.78125 -5.171875 C 2.15625 -5.378906 2.578125 -5.484375 3.046875 -5.484375 C 3.742188 -5.484375 4.285156 -5.289062 4.671875 -4.90625 C 5.054688 -4.519531 5.25 -3.941406 5.25 -3.171875 C 5.25 -2.867188 5.242188 -2.664062 5.234375 -2.5625 Z M 4.46875 -3.171875 C 4.457031 -3.742188 4.328125 -4.160156 4.078125 -4.421875 C 3.835938 -4.679688 3.492188 -4.8125 3.046875 -4.8125 C 2.578125 -4.8125 2.207031 -4.679688 1.9375 -4.421875 C 1.664062 -4.160156 1.503906 -3.742188 1.453125 -3.171875 Z M 4.46875 -3.171875 "/></g></g><g style="fill:#000000;fill-opacity:1;"><g transform="translate(167.119844, 189.992786)"><path style="stroke:none" d="M 2.453125 0.109375 C 2.117188 0.109375 1.804688 0.0625 1.515625 -0.03125 C 1.222656 -0.125 0.976562 -0.25 0.78125 -0.40625 C 0.582031 -0.5625 0.441406 -0.734375 0.359375 -0.921875 L 0.828125 -1.421875 L 0.9375 -1.421875 C 1.113281 -1.148438 1.320312 -0.945312 1.5625 -0.8125 C 1.8125 -0.675781 2.109375 -0.609375 2.453125 -0.609375 C 2.847656 -0.609375 3.148438 -0.6875 3.359375 -0.84375 C 3.566406 -1 3.671875 -1.210938 3.671875 -1.484375 C 3.671875 -1.703125 3.609375 -1.878906 3.484375 -2.015625 C 3.359375 -2.148438 3.15625 -2.253906 2.875 -2.328125 L 1.96875 -2.546875 C 1.476562 -2.660156 1.125 -2.84375 0.90625 -3.09375 C 0.6875 -3.351562 0.578125 -3.671875 0.578125 -4.046875 C 0.578125 -4.335938 0.648438 -4.59375 0.796875 -4.8125 C 0.941406 -5.03125 1.15625 -5.195312 1.4375 -5.3125 C 1.71875 -5.425781 2.054688 -5.484375 2.453125 -5.484375 C 2.941406 -5.484375 3.328125 -5.414062 3.609375 -5.28125 C 3.898438 -5.144531 4.125 -4.953125 4.28125 -4.703125 L 3.828125 -4.265625 L 3.734375 -4.265625 C 3.566406 -4.460938 3.378906 -4.601562 3.171875 -4.6875 C 2.960938 -4.78125 2.722656 -4.828125 2.453125 -4.828125 C 2.097656 -4.828125 1.820312 -4.757812 1.625 -4.625 C 1.4375 -4.5 1.34375 -4.316406 1.34375 -4.078125 C 1.34375 -3.859375 1.410156 -3.679688 1.546875 -3.546875 C 1.679688 -3.421875 1.914062 -3.316406 2.25 -3.234375 L 3.140625 -3.015625 C 3.609375 -2.910156 3.945312 -2.726562 4.15625 -2.46875 C 4.363281 -2.207031 4.46875 -1.882812 4.46875 -1.5 C 4.46875 -1.1875 4.390625 -0.90625 4.234375 -0.65625 C 4.085938 -0.414062 3.863281 -0.226562 3.5625 -0.09375 C 3.257812 0.0390625 2.890625 0.109375 2.453125 0.109375 Z M 2.453125 0.109375 "/></g></g><g style="fill:#000000;fill-opacity:1;"><g transform="translate(172.098367, 189.992786)"><path style="stroke:none" d="M 2.453125 0.109375 C 2.117188 0.109375 1.804688 0.0625 1.515625 -0.03125 C 1.222656 -0.125 0.976562 -0.25 0.78125 -0.40625 C 0.582031 -0.5625 0.441406 -0.734375 0.359375 -0.921875 L 0.828125 -1.421875 L 0.9375 -1.421875 C 1.113281 -1.148438 1.320312 -0.945312 1.5625 -0.8125 C 1.8125 -0.675781 2.109375 -0.609375 2.453125 -0.609375 C 2.847656 -0.609375 3.148438 -0.6875 3.359375 -0.84375 C 3.566406 -1 3.671875 -1.210938 3.671875 -1.484375 C 3.671875 -1.703125 3.609375 -1.878906 3.484375 -2.015625 C 3.359375 -2.148438 3.15625 -2.253906 2.875 -2.328125 L 1.96875 -2.546875 C 1.476562 -2.660156 1.125 -2.84375 0.90625 -3.09375 C 0.6875 -3.351562 0.578125 -3.671875 0.578125 -4.046875 C 0.578125 -4.335938 0.648438 -4.59375 0.796875 -4.8125 C 0.941406 -5.03125 1.15625 -5.195312 1.4375 -5.3125 C 1.71875 -5.425781 2.054688 -5.484375 2.453125 -5.484375 C 2.941406 -5.484375 3.328125 -5.414062 3.609375 -5.28125 C 3.898438 -5.144531 4.125 -4.953125 4.28125 -4.703125 L 3.828125 -4.265625 L 3.734375 -4.265625 C 3.566406 -4.460938 3.378906 -4.601562 3.171875 -4.6875 C 2.960938 -4.78125 2.722656 -4.828125 2.453125 -4.828125 C 2.097656 -4.828125 1.820312 -4.757812 1.625 -4.625 C 1.4375 -4.5 1.34375 -4.316406 1.34375 -4.078125 C 1.34375 -3.859375 1.410156 -3.679688 1.546875 -3.546875 C 1.679688 -3.421875 1.914062 -3.316406 2.25 -3.234375 L 3.140625 -3.015625 C 3.609375 -2.910156 3.945312 -2.726562 4.15625 -2.46875 C 4.363281 -2.207031 4.46875 -1.882812 4.46875 -1.5 C 4.46875 -1.1875 4.390625 -0.90625 4.234375 -0.65625 C 4.085938 -0.414062 3.863281 -0.226562 3.5625 -0.09375 C 3.257812 0.0390625 2.890625 0.109375 2.453125 0.109375 Z M 2.453125 0.109375 "/></g></g><g style="fill:#000000;fill-opacity:1;"><g transform="translate(177.07689, 189.992786)"><path style="stroke:none" d="M 5.125 -2.515625 L 1.4375 -2.515625 C 1.457031 -1.859375 1.613281 -1.375 1.90625 -1.0625 C 2.195312 -0.757812 2.59375 -0.609375 3.09375 -0.609375 C 3.476562 -0.609375 3.785156 -0.675781 4.015625 -0.8125 C 4.253906 -0.945312 4.441406 -1.160156 4.578125 -1.453125 L 4.6875 -1.453125 L 5.203125 -1.15625 C 5.046875 -0.757812 4.796875 -0.445312 4.453125 -0.21875 C 4.109375 0 3.65625 0.109375 3.09375 0.109375 C 2.570312 0.109375 2.125 0.00390625 1.75 -0.203125 C 1.382812 -0.410156 1.097656 -0.722656 0.890625 -1.140625 C 0.691406 -1.554688 0.59375 -2.070312 0.59375 -2.6875 C 0.59375 -3.300781 0.695312 -3.816406 0.90625 -4.234375 C 1.125 -4.660156 1.414062 -4.972656 1.78125 -5.171875 C 2.15625 -5.378906 2.578125 -5.484375 3.046875 -5.484375 C 3.742188 -5.484375 4.285156 -5.289062 4.671875 -4.90625 C 5.054688 -4.519531 5.25 -3.941406 5.25 -3.171875 C 5.25 -2.867188 5.242188 -2.664062 5.234375 -2.5625 Z M 4.46875 -3.171875 C 4.457031 -3.742188 4.328125 -4.160156 4.078125 -4.421875 C 3.835938 -4.679688 3.492188 -4.8125 3.046875 -4.8125 C 2.578125 -4.8125 2.207031 -4.679688 1.9375 -4.421875 C 1.664062 -4.160156 1.503906 -3.742188 1.453125 -3.171875 Z M 4.46875 -3.171875 "/></g></g><g style="fill:#000000;fill-opacity:1;"><g transform="translate(182.816834, 189.992786)"><path style="stroke:none" d="M 0.9375 0 L 0.9375 -5.390625 L 1.6875 -5.390625 L 1.6875 -4.546875 L 1.796875 -4.515625 C 2.046875 -5.128906 2.519531 -5.4375 3.21875 -5.4375 C 3.582031 -5.4375 3.851562 -5.367188 4.03125 -5.234375 L 3.828125 -4.5625 L 3.734375 -4.546875 C 3.535156 -4.640625 3.316406 -4.6875 3.078125 -4.6875 C 2.640625 -4.6875 2.304688 -4.523438 2.078125 -4.203125 C 1.847656 -3.878906 1.734375 -3.359375 1.734375 -2.640625 L 1.734375 0 Z M 0.9375 0 "/></g></g><g style="fill:#000000;fill-opacity:1;"><g transform="translate(186.975365, 189.992786)"><path style="stroke:none" d=""/></g></g><g style="fill:#000000;fill-opacity:1;"><g transform="translate(189.425579, 189.992786)"><path style="stroke:none" d="M 2.78125 2.28125 C 1.925781 2.28125 1.300781 2.140625 0.90625 1.859375 C 0.519531 1.578125 0.328125 1.203125 0.328125 0.734375 C 0.328125 0.429688 0.414062 0.1875 0.59375 0 C 0.78125 -0.175781 1.046875 -0.300781 1.390625 -0.375 L 1.390625 -0.484375 C 1.222656 -0.578125 1.097656 -0.6875 1.015625 -0.8125 C 0.941406 -0.9375 0.90625 -1.085938 0.90625 -1.265625 C 0.90625 -1.472656 0.96875 -1.640625 1.09375 -1.765625 C 1.226562 -1.898438 1.425781 -2.003906 1.6875 -2.078125 L 1.6875 -2.171875 C 1.101562 -2.484375 0.8125 -2.988281 0.8125 -3.6875 C 0.8125 -4.03125 0.890625 -4.335938 1.046875 -4.609375 C 1.203125 -4.890625 1.425781 -5.101562 1.71875 -5.25 C 2.019531 -5.40625 2.367188 -5.484375 2.765625 -5.484375 C 3.210938 -5.484375 3.585938 -5.382812 3.890625 -5.1875 C 4.003906 -5.3125 4.085938 -5.445312 4.140625 -5.59375 C 4.203125 -5.738281 4.242188 -5.90625 4.265625 -6.09375 L 4.359375 -6.15625 L 5.015625 -6 C 4.984375 -5.726562 4.898438 -5.492188 4.765625 -5.296875 C 4.640625 -5.109375 4.457031 -4.953125 4.21875 -4.828125 L 4.21875 -4.734375 C 4.382812 -4.597656 4.507812 -4.4375 4.59375 -4.25 C 4.675781 -4.0625 4.71875 -3.847656 4.71875 -3.609375 C 4.71875 -3.265625 4.632812 -2.957031 4.46875 -2.6875 C 4.3125 -2.425781 4.082031 -2.21875 3.78125 -2.0625 C 3.488281 -1.90625 3.148438 -1.828125 2.765625 -1.828125 C 2.722656 -1.828125 2.640625 -1.832031 2.515625 -1.84375 C 2.390625 -1.84375 2.296875 -1.84375 2.234375 -1.84375 C 2.066406 -1.84375 1.929688 -1.796875 1.828125 -1.703125 C 1.722656 -1.617188 1.671875 -1.507812 1.671875 -1.375 C 1.671875 -1.207031 1.722656 -1.082031 1.828125 -1 C 1.941406 -0.925781 2.125 -0.882812 2.375 -0.875 L 3.65625 -0.828125 C 4.207031 -0.804688 4.613281 -0.675781 4.875 -0.4375 C 5.144531 -0.207031 5.28125 0.125 5.28125 0.5625 C 5.28125 0.882812 5.191406 1.175781 5.015625 1.4375 C 4.835938 1.695312 4.5625 1.898438 4.1875 2.046875 C 3.820312 2.203125 3.351562 2.28125 2.78125 2.28125 Z M 2.765625 -2.515625 C 3.140625 -2.515625 3.429688 -2.613281 3.640625 -2.8125 C 3.847656 -3.007812 3.953125 -3.285156 3.953125 -3.640625 C 3.953125 -4.015625 3.847656 -4.300781 3.640625 -4.5 C 3.441406 -4.707031 3.148438 -4.8125 2.765625 -4.8125 C 2.378906 -4.8125 2.082031 -4.707031 1.875 -4.5 C 1.675781 -4.300781 1.578125 -4.015625 1.578125 -3.640625 C 1.578125 -3.273438 1.675781 -2.992188 1.875 -2.796875 C 2.082031 -2.609375 2.378906 -2.515625 2.765625 -2.515625 Z M 2.78125 1.609375 C 3.175781 1.609375 3.5 1.5625 3.75 1.46875 C 4 1.382812 4.175781 1.269531 4.28125 1.125 C 4.394531 0.976562 4.453125 0.816406 4.453125 0.640625 C 4.453125 0.472656 4.421875 0.34375 4.359375 0.25 C 4.304688 0.15625 4.210938 0.0820312 4.078125 0.03125 C 3.941406 -0.0195312 3.757812 -0.0507812 3.53125 -0.0625 L 2.328125 -0.125 L 2.15625 -0.125 C 1.476562 -0.113281 1.140625 0.148438 1.140625 0.671875 C 1.140625 1.296875 1.6875 1.609375 2.78125 1.609375 Z M 2.78125 1.609375 "/></g></g><g style="fill:#000000;fill-opacity:1;"><g transform="translate(194.858009, 189.992786)"><path style="stroke:none" d="M 5.125 -2.515625 L 1.4375 -2.515625 C 1.457031 -1.859375 1.613281 -1.375 1.90625 -1.0625 C 2.195312 -0.757812 2.59375 -0.609375 3.09375 -0.609375 C 3.476562 -0.609375 3.785156 -0.675781 4.015625 -0.8125 C 4.253906 -0.945312 4.441406 -1.160156 4.578125 -1.453125 L 4.6875 -1.453125 L 5.203125 -1.15625 C 5.046875 -0.757812 4.796875 -0.445312 4.453125 -0.21875 C 4.109375 0 3.65625 0.109375 3.09375 0.109375 C 2.570312 0.109375 2.125 0.00390625 1.75 -0.203125 C 1.382812 -0.410156 1.097656 -0.722656 0.890625 -1.140625 C 0.691406 -1.554688 0.59375 -2.070312 0.59375 -2.6875 C 0.59375 -3.300781 0.695312 -3.816406 0.90625 -4.234375 C 1.125 -4.660156 1.414062 -4.972656 1.78125 -5.171875 C 2.15625 -5.378906 2.578125 -5.484375 3.046875 -5.484375 C 3.742188 -5.484375 4.285156 -5.289062 4.671875 -4.90625 C 5.054688 -4.519531 5.25 -3.941406 5.25 -3.171875 C 5.25 -2.867188 5.242188 -2.664062 5.234375 -2.5625 Z M 4.46875 -3.171875 C 4.457031 -3.742188 4.328125 -4.160156 4.078125 -4.421875 C 3.835938 -4.679688 3.492188 -4.8125 3.046875 -4.8125 C 2.578125 -4.8125 2.207031 -4.679688 1.9375 -4.421875 C 1.664062 -4.160156 1.503906 -3.742188 1.453125 -3.171875 Z M 4.46875 -3.171875 "/></g></g><g style="fill:#000000;fill-opacity:1;"><g transform="translate(200.597953, 189.992786)"><path style="stroke:none" d="M 1.203125 0 L 1.203125 -4.734375 L 0.265625 -4.734375 L 0.265625 -5.390625 L 1.203125 -5.390625 C 1.140625 -5.628906 1.109375 -5.851562 1.109375 -6.0625 C 1.109375 -6.40625 1.179688 -6.695312 1.328125 -6.9375 C 1.484375 -7.175781 1.691406 -7.351562 1.953125 -7.46875 C 2.210938 -7.59375 2.515625 -7.65625 2.859375 -7.65625 C 3.398438 -7.65625 3.816406 -7.539062 4.109375 -7.3125 L 3.796875 -6.75 L 3.6875 -6.71875 C 3.476562 -6.894531 3.203125 -6.984375 2.859375 -6.984375 C 2.546875 -6.984375 2.304688 -6.898438 2.140625 -6.734375 C 1.984375 -6.566406 1.90625 -6.335938 1.90625 -6.046875 C 1.90625 -5.859375 1.9375 -5.640625 2 -5.390625 L 3.71875 -5.390625 L 3.71875 -4.734375 L 2 -4.734375 L 2 0 Z M 1.203125 0 "/></g></g><g style="fill:#000000;fill-opacity:1;"><g transform="translate(204.434344, 189.992786)"><path style="stroke:none" d="M 2.65625 0.109375 C 2.050781 0.109375 1.597656 -0.0507812 1.296875 -0.375 C 1.003906 -0.695312 0.859375 -1.171875 0.859375 -1.796875 L 0.859375 -5.390625 L 1.65625 -5.390625 L 1.65625 -1.8125 C 1.65625 -1 2.035156 -0.59375 2.796875 -0.59375 C 3.285156 -0.59375 3.671875 -0.75 3.953125 -1.0625 C 4.242188 -1.382812 4.390625 -1.90625 4.390625 -2.625 L 4.390625 -5.390625 L 5.1875 -5.390625 L 5.1875 0 L 4.421875 0 L 4.421875 -0.84375 L 4.328125 -0.875 C 4.140625 -0.539062 3.914062 -0.289062 3.65625 -0.125 C 3.394531 0.03125 3.0625 0.109375 2.65625 0.109375 Z M 2.65625 0.109375 "/></g></g><g style="fill:#000000;fill-opacity:1;"><g transform="translate(210.550124, 189.992786)"><path style="stroke:none" d="M 0.9375 0 L 0.9375 -5.390625 L 1.6875 -5.390625 L 1.6875 -4.546875 L 1.796875 -4.515625 C 1.972656 -4.828125 2.203125 -5.066406 2.484375 -5.234375 C 2.765625 -5.398438 3.101562 -5.484375 3.5 -5.484375 C 4.144531 -5.484375 4.613281 -5.316406 4.90625 -4.984375 C 5.195312 -4.660156 5.34375 -4.15625 5.34375 -3.46875 L 5.34375 0 L 4.546875 0 L 4.546875 -3.453125 C 4.546875 -3.773438 4.503906 -4.035156 4.421875 -4.234375 C 4.335938 -4.429688 4.207031 -4.570312 4.03125 -4.65625 C 3.863281 -4.75 3.640625 -4.796875 3.359375 -4.796875 C 2.867188 -4.796875 2.472656 -4.632812 2.171875 -4.3125 C 1.878906 -3.988281 1.734375 -3.472656 1.734375 -2.765625 L 1.734375 0 Z M 0.9375 0 "/></g></g><g style="fill:#000000;fill-opacity:1;"><g transform="translate(216.748873, 189.992786)"><path style="stroke:none" d="M 2.796875 0.109375 C 2.359375 0.109375 1.972656 0.00390625 1.640625 -0.203125 C 1.316406 -0.410156 1.0625 -0.722656 0.875 -1.140625 C 0.6875 -1.554688 0.59375 -2.070312 0.59375 -2.6875 C 0.59375 -3.300781 0.6875 -3.816406 0.875 -4.234375 C 1.070312 -4.660156 1.34375 -4.972656 1.6875 -5.171875 C 2.03125 -5.378906 2.429688 -5.484375 2.890625 -5.484375 C 3.242188 -5.484375 3.5625 -5.414062 3.84375 -5.28125 C 4.132812 -5.144531 4.382812 -4.925781 4.59375 -4.625 L 4.6875 -4.640625 L 4.6875 -7.546875 L 5.484375 -7.546875 L 5.484375 0 L 4.6875 0 L 4.6875 -0.78125 L 4.59375 -0.8125 C 4.414062 -0.539062 4.175781 -0.316406 3.875 -0.140625 C 3.570312 0.0234375 3.210938 0.109375 2.796875 0.109375 Z M 3.046875 -0.609375 C 3.546875 -0.609375 3.941406 -0.78125 4.234375 -1.125 C 4.535156 -1.46875 4.6875 -1.988281 4.6875 -2.6875 C 4.6875 -3.394531 4.535156 -3.921875 4.234375 -4.265625 C 3.941406 -4.609375 3.546875 -4.78125 3.046875 -4.78125 C 2.523438 -4.78125 2.125 -4.609375 1.84375 -4.265625 C 1.5625 -3.929688 1.421875 -3.40625 1.421875 -2.6875 C 1.421875 -1.300781 1.960938 -0.609375 3.046875 -0.609375 Z M 3.046875 -0.609375 "/></g></g><g style="fill:#000000;fill-opacity:1;"><g transform="translate(223.17703, 189.992786)"><path style="stroke:none" d="M 5.125 -2.515625 L 1.4375 -2.515625 C 1.457031 -1.859375 1.613281 -1.375 1.90625 -1.0625 C 2.195312 -0.757812 2.59375 -0.609375 3.09375 -0.609375 C 3.476562 -0.609375 3.785156 -0.675781 4.015625 -0.8125 C 4.253906 -0.945312 4.441406 -1.160156 4.578125 -1.453125 L 4.6875 -1.453125 L 5.203125 -1.15625 C 5.046875 -0.757812 4.796875 -0.445312 4.453125 -0.21875 C 4.109375 0 3.65625 0.109375 3.09375 0.109375 C 2.570312 0.109375 2.125 0.00390625 1.75 -0.203125 C 1.382812 -0.410156 1.097656 -0.722656 0.890625 -1.140625 C 0.691406 -1.554688 0.59375 -2.070312 0.59375 -2.6875 C 0.59375 -3.300781 0.695312 -3.816406 0.90625 -4.234375 C 1.125 -4.660156 1.414062 -4.972656 1.78125 -5.171875 C 2.15625 -5.378906 2.578125 -5.484375 3.046875 -5.484375 C 3.742188 -5.484375 4.285156 -5.289062 4.671875 -4.90625 C 5.054688 -4.519531 5.25 -3.941406 5.25 -3.171875 C 5.25 -2.867188 5.242188 -2.664062 5.234375 -2.5625 Z M 4.46875 -3.171875 C 4.457031 -3.742188 4.328125 -4.160156 4.078125 -4.421875 C 3.835938 -4.679688 3.492188 -4.8125 3.046875 -4.8125 C 2.578125 -4.8125 2.207031 -4.679688 1.9375 -4.421875 C 1.664062 -4.160156 1.503906 -3.742188 1.453125 -3.171875 Z M 4.46875 -3.171875 "/></g></g><g style="fill:#000000;fill-opacity:1;"><g transform="translate(228.916974, 189.992786)"><path style="stroke:none" d="M 0.9375 0 L 0.9375 -5.390625 L 1.6875 -5.390625 L 1.6875 -4.546875 L 1.796875 -4.515625 C 1.972656 -4.828125 2.203125 -5.066406 2.484375 -5.234375 C 2.765625 -5.398438 3.101562 -5.484375 3.5 -5.484375 C 4.144531 -5.484375 4.613281 -5.316406 4.90625 -4.984375 C 5.195312 -4.660156 5.34375 -4.15625 5.34375 -3.46875 L 5.34375 0 L 4.546875 0 L 4.546875 -3.453125 C 4.546875 -3.773438 4.503906 -4.035156 4.421875 -4.234375 C 4.335938 -4.429688 4.207031 -4.570312 4.03125 -4.65625 C 3.863281 -4.75 3.640625 -4.796875 3.359375 -4.796875 C 2.867188 -4.796875 2.472656 -4.632812 2.171875 -4.3125 C 1.878906 -3.988281 1.734375 -3.472656 1.734375 -2.765625 L 1.734375 0 Z M 0.9375 0 "/></g></g><g style="fill:#000000;fill-opacity:1;"><g transform="translate(235.115723, 189.992786)"><path style="stroke:none" d="M 1.3125 0.046875 C 1.125 0.046875 0.976562 -0.00390625 0.875 -0.109375 C 0.769531 -0.210938 0.71875 -0.347656 0.71875 -0.515625 C 0.71875 -0.691406 0.769531 -0.832031 0.875 -0.9375 C 0.976562 -1.050781 1.125 -1.109375 1.3125 -1.109375 C 1.5 -1.109375 1.644531 -1.054688 1.75 -0.953125 C 1.863281 -0.847656 1.921875 -0.707031 1.921875 -0.53125 C 1.921875 -0.363281 1.863281 -0.222656 1.75 -0.109375 C 1.644531 -0.00390625 1.5 0.046875 1.3125 0.046875 Z M 1.3125 0.046875 "/></g></g><g style="fill:#000000;fill-opacity:1;"><g transform="translate(237.746537, 189.992786)"><path style="stroke:none" d=""/></g></g><g style="fill:#000000;fill-opacity:1;"><g transform="translate(240.196751, 189.992786)"><path style="stroke:none" d="M 1.859375 0 L 1.078125 0 L 1.078125 -7.140625 L 2.328125 -7.140625 L 4.484375 -1.09375 L 4.59375 -1.09375 L 6.75 -7.140625 L 7.953125 -7.140625 L 7.953125 0 L 7.15625 0 L 7.15625 -5.828125 L 7.03125 -5.84375 L 4.921875 0 L 4.09375 0 L 1.984375 -5.84375 L 1.859375 -5.828125 Z M 1.859375 0 "/></g></g><g style="fill:#000000;fill-opacity:1;"><g transform="translate(249.231312, 189.992786)"><path style="stroke:none" d="M 5.125 -2.515625 L 1.4375 -2.515625 C 1.457031 -1.859375 1.613281 -1.375 1.90625 -1.0625 C 2.195312 -0.757812 2.59375 -0.609375 3.09375 -0.609375 C 3.476562 -0.609375 3.785156 -0.675781 4.015625 -0.8125 C 4.253906 -0.945312 4.441406 -1.160156 4.578125 -1.453125 L 4.6875 -1.453125 L 5.203125 -1.15625 C 5.046875 -0.757812 4.796875 -0.445312 4.453125 -0.21875 C 4.109375 0 3.65625 0.109375 3.09375 0.109375 C 2.570312 0.109375 2.125 0.00390625 1.75 -0.203125 C 1.382812 -0.410156 1.097656 -0.722656 0.890625 -1.140625 C 0.691406 -1.554688 0.59375 -2.070312 0.59375 -2.6875 C 0.59375 -3.300781 0.695312 -3.816406 0.90625 -4.234375 C 1.125 -4.660156 1.414062 -4.972656 1.78125 -5.171875 C 2.15625 -5.378906 2.578125 -5.484375 3.046875 -5.484375 C 3.742188 -5.484375 4.285156 -5.289062 4.671875 -4.90625 C 5.054688 -4.519531 5.25 -3.941406 5.25 -3.171875 C 5.25 -2.867188 5.242188 -2.664062 5.234375 -2.5625 Z M 4.46875 -3.171875 C 4.457031 -3.742188 4.328125 -4.160156 4.078125 -4.421875 C 3.835938 -4.679688 3.492188 -4.8125 3.046875 -4.8125 C 2.578125 -4.8125 2.207031 -4.679688 1.9375 -4.421875 C 1.664062 -4.160156 1.503906 -3.742188 1.453125 -3.171875 Z M 4.46875 -3.171875 "/></g></g><g style="fill:#000000;fill-opacity:1;"><g transform="translate(254.971256, 189.992786)"><path style="stroke:none" d="M 0.9375 0 L 0.9375 -7.546875 L 1.734375 -7.546875 L 1.734375 -4.625 L 1.84375 -4.59375 C 2.21875 -5.1875 2.769531 -5.484375 3.5 -5.484375 C 4.144531 -5.484375 4.613281 -5.316406 4.90625 -4.984375 C 5.195312 -4.660156 5.34375 -4.15625 5.34375 -3.46875 L 5.34375 0 L 4.546875 0 L 4.546875 -3.453125 C 4.546875 -3.773438 4.503906 -4.035156 4.421875 -4.234375 C 4.335938 -4.429688 4.207031 -4.570312 4.03125 -4.65625 C 3.863281 -4.75 3.640625 -4.796875 3.359375 -4.796875 C 2.867188 -4.796875 2.472656 -4.632812 2.171875 -4.3125 C 1.878906 -4 1.734375 -3.484375 1.734375 -2.765625 L 1.734375 0 Z M 0.9375 0 "/></g></g><g style="fill:#000000;fill-opacity:1;"><g transform="translate(261.170005, 189.992786)"><path style="stroke:none" d="M 0.9375 0 L 0.9375 -5.390625 L 1.6875 -5.390625 L 1.6875 -4.546875 L 1.796875 -4.515625 C 2.046875 -5.128906 2.519531 -5.4375 3.21875 -5.4375 C 3.582031 -5.4375 3.851562 -5.367188 4.03125 -5.234375 L 3.828125 -4.5625 L 3.734375 -4.546875 C 3.535156 -4.640625 3.316406 -4.6875 3.078125 -4.6875 C 2.640625 -4.6875 2.304688 -4.523438 2.078125 -4.203125 C 1.847656 -3.878906 1.734375 -3.359375 1.734375 -2.640625 L 1.734375 0 Z M 0.9375 0 "/></g></g><g style="fill:#000000;fill-opacity:1;"><g transform="translate(265.328536, 189.992786)"><path style="stroke:none" d=""/></g></g><g style="fill:#000000;fill-opacity:1;"><g transform="translate(267.77875, 189.992786)"><path style="stroke:none" d="M 1.078125 0 L 1.078125 -7.140625 L 1.921875 -7.140625 L 1.921875 -4.015625 L 2.078125 -4.015625 L 5 -7.140625 L 5.921875 -7.140625 L 5.921875 -7.015625 L 2.828125 -3.6875 L 6.15625 -0.125 L 6.15625 0 L 5.203125 0 L 2.078125 -3.28125 L 1.921875 -3.28125 L 1.921875 0 Z M 1.078125 0 "/></g></g><g style="fill:#000000;fill-opacity:1;"><g transform="translate(273.972601, 189.992786)"><path style="stroke:none" d="M 2.65625 0.109375 C 2.050781 0.109375 1.597656 -0.0507812 1.296875 -0.375 C 1.003906 -0.695312 0.859375 -1.171875 0.859375 -1.796875 L 0.859375 -5.390625 L 1.65625 -5.390625 L 1.65625 -1.8125 C 1.65625 -1 2.035156 -0.59375 2.796875 -0.59375 C 3.285156 -0.59375 3.671875 -0.75 3.953125 -1.0625 C 4.242188 -1.382812 4.390625 -1.90625 4.390625 -2.625 L 4.390625 -5.390625 L 5.1875 -5.390625 L 5.1875 0 L 4.421875 0 L 4.421875 -0.84375 L 4.328125 -0.875 C 4.140625 -0.539062 3.914062 -0.289062 3.65625 -0.125 C 3.394531 0.03125 3.0625 0.109375 2.65625 0.109375 Z M 2.65625 0.109375 "/></g></g><g style="fill:#000000;fill-opacity:1;"><g transform="translate(280.088381, 189.992786)"><path style="stroke:none" d="M 0.9375 0 L 0.9375 -5.390625 L 1.6875 -5.390625 L 1.6875 -4.546875 L 1.796875 -4.515625 C 1.972656 -4.828125 2.203125 -5.066406 2.484375 -5.234375 C 2.765625 -5.398438 3.101562 -5.484375 3.5 -5.484375 C 4.144531 -5.484375 4.613281 -5.316406 4.90625 -4.984375 C 5.195312 -4.660156 5.34375 -4.15625 5.34375 -3.46875 L 5.34375 0 L 4.546875 0 L 4.546875 -3.453125 C 4.546875 -3.773438 4.503906 -4.035156 4.421875 -4.234375 C 4.335938 -4.429688 4.207031 -4.570312 4.03125 -4.65625 C 3.863281 -4.75 3.640625 -4.796875 3.359375 -4.796875 C 2.867188 -4.796875 2.472656 -4.632812 2.171875 -4.3125 C 1.878906 -3.988281 1.734375 -3.472656 1.734375 -2.765625 L 1.734375 0 Z M 0.9375 0 "/></g></g><g style="fill:#000000;fill-opacity:1;"><g transform="translate(286.28713, 189.992786)"><path style="stroke:none" d="M 2.796875 0.109375 C 2.359375 0.109375 1.972656 0.00390625 1.640625 -0.203125 C 1.316406 -0.410156 1.0625 -0.722656 0.875 -1.140625 C 0.6875 -1.554688 0.59375 -2.070312 0.59375 -2.6875 C 0.59375 -3.300781 0.6875 -3.816406 0.875 -4.234375 C 1.070312 -4.660156 1.34375 -4.972656 1.6875 -5.171875 C 2.03125 -5.378906 2.429688 -5.484375 2.890625 -5.484375 C 3.242188 -5.484375 3.5625 -5.414062 3.84375 -5.28125 C 4.132812 -5.144531 4.382812 -4.925781 4.59375 -4.625 L 4.6875 -4.640625 L 4.6875 -7.546875 L 5.484375 -7.546875 L 5.484375 0 L 4.6875 0 L 4.6875 -0.78125 L 4.59375 -0.8125 C 4.414062 -0.539062 4.175781 -0.316406 3.875 -0.140625 C 3.570312 0.0234375 3.210938 0.109375 2.796875 0.109375 Z M 3.046875 -0.609375 C 3.546875 -0.609375 3.941406 -0.78125 4.234375 -1.125 C 4.535156 -1.46875 4.6875 -1.988281 4.6875 -2.6875 C 4.6875 -3.394531 4.535156 -3.921875 4.234375 -4.265625 C 3.941406 -4.609375 3.546875 -4.78125 3.046875 -4.78125 C 2.523438 -4.78125 2.125 -4.609375 1.84375 -4.265625 C 1.5625 -3.929688 1.421875 -3.40625 1.421875 -2.6875 C 1.421875 -1.300781 1.960938 -0.609375 3.046875 -0.609375 Z M 3.046875 -0.609375 "/></g></g><g style="fill:#000000;fill-opacity:1;"><g transform="translate(292.715287, 189.992786)"><path style="stroke:none" d="M 5.125 -2.515625 L 1.4375 -2.515625 C 1.457031 -1.859375 1.613281 -1.375 1.90625 -1.0625 C 2.195312 -0.757812 2.59375 -0.609375 3.09375 -0.609375 C 3.476562 -0.609375 3.785156 -0.675781 4.015625 -0.8125 C 4.253906 -0.945312 4.441406 -1.160156 4.578125 -1.453125 L 4.6875 -1.453125 L 5.203125 -1.15625 C 5.046875 -0.757812 4.796875 -0.445312 4.453125 -0.21875 C 4.109375 0 3.65625 0.109375 3.09375 0.109375 C 2.570312 0.109375 2.125 0.00390625 1.75 -0.203125 C 1.382812 -0.410156 1.097656 -0.722656 0.890625 -1.140625 C 0.691406 -1.554688 0.59375 -2.070312 0.59375 -2.6875 C 0.59375 -3.300781 0.695312 -3.816406 0.90625 -4.234375 C 1.125 -4.660156 1.414062 -4.972656 1.78125 -5.171875 C 2.15625 -5.378906 2.578125 -5.484375 3.046875 -5.484375 C 3.742188 -5.484375 4.285156 -5.289062 4.671875 -4.90625 C 5.054688 -4.519531 5.25 -3.941406 5.25 -3.171875 C 5.25 -2.867188 5.242188 -2.664062 5.234375 -2.5625 Z M 4.46875 -3.171875 C 4.457031 -3.742188 4.328125 -4.160156 4.078125 -4.421875 C 3.835938 -4.679688 3.492188 -4.8125 3.046875 -4.8125 C 2.578125 -4.8125 2.207031 -4.679688 1.9375 -4.421875 C 1.664062 -4.160156 1.503906 -3.742188 1.453125 -3.171875 Z M 4.46875 -3.171875 "/></g></g><g style="fill:#000000;fill-opacity:1;"><g transform="translate(298.455231, 189.992786)"><path style="stroke:none" d="M 0.9375 0 L 0.9375 -5.390625 L 1.6875 -5.390625 L 1.6875 -4.546875 L 1.796875 -4.515625 C 1.972656 -4.828125 2.203125 -5.066406 2.484375 -5.234375 C 2.765625 -5.398438 3.101562 -5.484375 3.5 -5.484375 C 4.144531 -5.484375 4.613281 -5.316406 4.90625 -4.984375 C 5.195312 -4.660156 5.34375 -4.15625 5.34375 -3.46875 L 5.34375 0 L 4.546875 0 L 4.546875 -3.453125 C 4.546875 -3.773438 4.503906 -4.035156 4.421875 -4.234375 C 4.335938 -4.429688 4.207031 -4.570312 4.03125 -4.65625 C 3.863281 -4.75 3.640625 -4.796875 3.359375 -4.796875 C 2.867188 -4.796875 2.472656 -4.632812 2.171875 -4.3125 C 1.878906 -3.988281 1.734375 -3.472656 1.734375 -2.765625 L 1.734375 0 Z M 0.9375 0 "/></g></g><g style="fill:#000000;fill-opacity:1;"><g transform="translate(304.65398, 189.992786)"><path style="stroke:none" d="M 1.3125 0.046875 C 1.125 0.046875 0.976562 -0.00390625 0.875 -0.109375 C 0.769531 -0.210938 0.71875 -0.347656 0.71875 -0.515625 C 0.71875 -0.691406 0.769531 -0.832031 0.875 -0.9375 C 0.976562 -1.050781 1.125 -1.109375 1.3125 -1.109375 C 1.5 -1.109375 1.644531 -1.054688 1.75 -0.953125 C 1.863281 -0.847656 1.921875 -0.707031 1.921875 -0.53125 C 1.921875 -0.363281 1.863281 -0.222656 1.75 -0.109375 C 1.644531 -0.00390625 1.5 0.046875 1.3125 0.046875 Z M 1.3125 0.046875 "/></g></g><g transform="matrix(1,0,0,1,82,149)"><g clip-path="url(#6f7ad28cb3)"><g style="fill:#74342b;fill-opacity:1;"><g transform="translate(1.015847, 74.653189)"><path style="stroke:none" d="M 48.53125 4.34375 L 30.9375 -42.375 L 13.328125 4.34375 L 0.796875 -53.65625 L 6.46875 -53.65625 L 14.75 -14.671875 L 30.9375 -56.8125 L 47.03125 -14.671875 L 55.390625 -53.65625 L 61 -53.65625 Z M 48.53125 4.34375 "/></g></g></g></g><path style="fill:none;stroke-width:9;stroke-linecap:butt;stroke-linejoin:miter;stroke:#ffffff;stroke-opacity:1;stroke-miterlimit:4;" d="M 0.0000399504 4.49819 L 39.584011 4.501116 " transform="matrix(-0.180051,-0.728067,0.728067,-0.180051,89.389086,197.48962)"/><g clip-rule="nonzero" clip-path="url(#9e11801181)"><g clip-rule="nonzero" clip-path="url(#0da1c41b56)"><g clip-rule="nonzero" clip-path="url(#7305ab4c82)"><g transform="matrix(1,0,0,1,88,191)"><g clip-path="url(#bd07fa9636)"><g clip-rule="nonzero" clip-path="url(#e2b2e4f20e)"><g clip-rule="nonzero" clip-path="url(#e1ed26d416)"><g clip-rule="nonzero" clip-path="url(#a1e076dc3c)"><path style=" stroke:none;fill-rule:nonzero;fill:#ffffff;fill-opacity:1;" d="M 0.265625 0.992188 L 8.269531 2.351562 L 6.433594 13.171875 L -1.570312 11.8125 Z M 0.265625 0.992188 "/></g></g></g></g></g></g></g></g></g></svg>